<mxfile host="app.diagrams.net" agent="Mozilla/5.0 (Windows NT 10.0; Win64; x64) AppleWebKit/537.36 (KHTML, like Gecko) Chrome/134.0.0.0 Safari/537.36" version="26.1.1">
  <diagram name="Page-1" id="kGGpLBbBXEPsmgBESnrp">
    <mxGraphModel dx="1434" dy="772" grid="1" gridSize="10" guides="1" tooltips="1" connect="1" arrows="1" fold="1" page="1" pageScale="1" pageWidth="827" pageHeight="1169" math="0" shadow="0">
      <root>
        <mxCell id="0" />
        <mxCell id="1" parent="0" />
        <mxCell id="qkcrN9jC0wkOHxkFEvWr-31" value="" style="edgeStyle=orthogonalEdgeStyle;rounded=0;orthogonalLoop=1;jettySize=auto;html=1;" edge="1" parent="1" source="qkcrN9jC0wkOHxkFEvWr-29" target="qkcrN9jC0wkOHxkFEvWr-30">
          <mxGeometry relative="1" as="geometry" />
        </mxCell>
        <mxCell id="qkcrN9jC0wkOHxkFEvWr-29" value="Start" style="rounded=1;whiteSpace=wrap;html=1;" vertex="1" parent="1">
          <mxGeometry x="310" y="30" width="120" height="40" as="geometry" />
        </mxCell>
        <mxCell id="qkcrN9jC0wkOHxkFEvWr-33" value="" style="edgeStyle=orthogonalEdgeStyle;rounded=0;orthogonalLoop=1;jettySize=auto;html=1;" edge="1" parent="1" source="qkcrN9jC0wkOHxkFEvWr-30" target="qkcrN9jC0wkOHxkFEvWr-32">
          <mxGeometry relative="1" as="geometry" />
        </mxCell>
        <mxCell id="qkcrN9jC0wkOHxkFEvWr-30" value="Generate a random Word" style="whiteSpace=wrap;html=1;rounded=1;" vertex="1" parent="1">
          <mxGeometry x="310" y="110" width="120" height="30" as="geometry" />
        </mxCell>
        <mxCell id="qkcrN9jC0wkOHxkFEvWr-36" value="" style="edgeStyle=orthogonalEdgeStyle;rounded=0;orthogonalLoop=1;jettySize=auto;html=1;" edge="1" parent="1" source="qkcrN9jC0wkOHxkFEvWr-32" target="qkcrN9jC0wkOHxkFEvWr-35">
          <mxGeometry relative="1" as="geometry" />
        </mxCell>
        <mxCell id="qkcrN9jC0wkOHxkFEvWr-32" value="Generate as many blanks as letters in word" style="whiteSpace=wrap;html=1;rounded=1;" vertex="1" parent="1">
          <mxGeometry x="310" y="170" width="120" height="40" as="geometry" />
        </mxCell>
        <mxCell id="qkcrN9jC0wkOHxkFEvWr-34" value="_ _ _ _ _ _" style="text;html=1;align=center;verticalAlign=middle;resizable=0;points=[];autosize=1;strokeColor=none;fillColor=none;" vertex="1" parent="1">
          <mxGeometry x="440" y="175" width="80" height="30" as="geometry" />
        </mxCell>
        <mxCell id="qkcrN9jC0wkOHxkFEvWr-38" value="" style="edgeStyle=orthogonalEdgeStyle;rounded=0;orthogonalLoop=1;jettySize=auto;html=1;" edge="1" parent="1" source="qkcrN9jC0wkOHxkFEvWr-35" target="qkcrN9jC0wkOHxkFEvWr-37">
          <mxGeometry relative="1" as="geometry" />
        </mxCell>
        <mxCell id="qkcrN9jC0wkOHxkFEvWr-35" value="Ask the user to guess a letter" style="whiteSpace=wrap;html=1;rounded=1;" vertex="1" parent="1">
          <mxGeometry x="310" y="240" width="120" height="40" as="geometry" />
        </mxCell>
        <mxCell id="qkcrN9jC0wkOHxkFEvWr-42" value="" style="edgeStyle=orthogonalEdgeStyle;rounded=0;orthogonalLoop=1;jettySize=auto;html=1;" edge="1" parent="1" source="qkcrN9jC0wkOHxkFEvWr-37" target="qkcrN9jC0wkOHxkFEvWr-41">
          <mxGeometry relative="1" as="geometry" />
        </mxCell>
        <mxCell id="qkcrN9jC0wkOHxkFEvWr-44" value="" style="edgeStyle=orthogonalEdgeStyle;rounded=0;orthogonalLoop=1;jettySize=auto;html=1;" edge="1" parent="1" source="qkcrN9jC0wkOHxkFEvWr-37" target="qkcrN9jC0wkOHxkFEvWr-43">
          <mxGeometry relative="1" as="geometry" />
        </mxCell>
        <mxCell id="qkcrN9jC0wkOHxkFEvWr-37" value="&lt;font style=&quot;font-size: 14px;&quot;&gt;Is the guessed&amp;nbsp;&lt;/font&gt;&lt;div&gt;&lt;font style=&quot;font-size: 14px;&quot;&gt;letter&amp;nbsp;&lt;/font&gt;&lt;div&gt;&lt;font style=&quot;font-size: 14px;&quot;&gt;in the word?&lt;/font&gt;&lt;/div&gt;&lt;/div&gt;" style="rhombus;whiteSpace=wrap;html=1;rounded=1;" vertex="1" parent="1">
          <mxGeometry x="290" y="310" width="160" height="110" as="geometry" />
        </mxCell>
        <mxCell id="qkcrN9jC0wkOHxkFEvWr-48" value="" style="edgeStyle=orthogonalEdgeStyle;rounded=0;orthogonalLoop=1;jettySize=auto;html=1;" edge="1" parent="1" source="qkcrN9jC0wkOHxkFEvWr-41" target="qkcrN9jC0wkOHxkFEvWr-47">
          <mxGeometry relative="1" as="geometry" />
        </mxCell>
        <mxCell id="qkcrN9jC0wkOHxkFEvWr-41" value="Replace the blank with letter" style="whiteSpace=wrap;html=1;rounded=1;" vertex="1" parent="1">
          <mxGeometry x="180" y="460" width="120" height="60" as="geometry" />
        </mxCell>
        <mxCell id="qkcrN9jC0wkOHxkFEvWr-50" style="edgeStyle=orthogonalEdgeStyle;rounded=0;orthogonalLoop=1;jettySize=auto;html=1;exitX=0.5;exitY=1;exitDx=0;exitDy=0;" edge="1" parent="1" source="qkcrN9jC0wkOHxkFEvWr-43">
          <mxGeometry relative="1" as="geometry">
            <mxPoint x="480" y="570" as="targetPoint" />
          </mxGeometry>
        </mxCell>
        <mxCell id="qkcrN9jC0wkOHxkFEvWr-43" value="Lose a life" style="whiteSpace=wrap;html=1;rounded=1;" vertex="1" parent="1">
          <mxGeometry x="420" y="460" width="120" height="60" as="geometry" />
        </mxCell>
        <mxCell id="qkcrN9jC0wkOHxkFEvWr-45" value="yes" style="text;html=1;align=center;verticalAlign=middle;resizable=0;points=[];autosize=1;strokeColor=none;fillColor=none;" vertex="1" parent="1">
          <mxGeometry x="270" y="408" width="40" height="30" as="geometry" />
        </mxCell>
        <mxCell id="qkcrN9jC0wkOHxkFEvWr-46" value="no" style="text;html=1;align=center;verticalAlign=middle;resizable=0;points=[];autosize=1;strokeColor=none;fillColor=none;" vertex="1" parent="1">
          <mxGeometry x="414" y="408" width="40" height="30" as="geometry" />
        </mxCell>
        <mxCell id="qkcrN9jC0wkOHxkFEvWr-53" value="" style="edgeStyle=orthogonalEdgeStyle;rounded=0;orthogonalLoop=1;jettySize=auto;html=1;" edge="1" parent="1" source="qkcrN9jC0wkOHxkFEvWr-47" target="qkcrN9jC0wkOHxkFEvWr-52">
          <mxGeometry relative="1" as="geometry" />
        </mxCell>
        <mxCell id="qkcrN9jC0wkOHxkFEvWr-47" value="Are all the&amp;nbsp;&lt;div&gt;blanks&lt;/div&gt;&lt;div&gt;filled&lt;/div&gt;" style="rhombus;whiteSpace=wrap;html=1;rounded=1;" vertex="1" parent="1">
          <mxGeometry x="190" y="570" width="100" height="100" as="geometry" />
        </mxCell>
        <mxCell id="qkcrN9jC0wkOHxkFEvWr-49" value="Have they&lt;div&gt;run out of&lt;/div&gt;&lt;div&gt;lives?&lt;/div&gt;" style="rhombus;whiteSpace=wrap;html=1;rounded=1;" vertex="1" parent="1">
          <mxGeometry x="430" y="570" width="100" height="100" as="geometry" />
        </mxCell>
        <mxCell id="qkcrN9jC0wkOHxkFEvWr-52" value="Game Over" style="whiteSpace=wrap;html=1;rounded=1;" vertex="1" parent="1">
          <mxGeometry x="290" y="770" width="120" height="50" as="geometry" />
        </mxCell>
        <mxCell id="qkcrN9jC0wkOHxkFEvWr-55" value="" style="endArrow=none;html=1;rounded=0;entryX=0.5;entryY=1;entryDx=0;entryDy=0;" edge="1" parent="1" target="qkcrN9jC0wkOHxkFEvWr-49">
          <mxGeometry width="50" height="50" relative="1" as="geometry">
            <mxPoint x="480" y="720" as="sourcePoint" />
            <mxPoint x="540" y="700" as="targetPoint" />
          </mxGeometry>
        </mxCell>
        <mxCell id="qkcrN9jC0wkOHxkFEvWr-56" value="" style="endArrow=none;html=1;rounded=0;" edge="1" parent="1">
          <mxGeometry width="50" height="50" relative="1" as="geometry">
            <mxPoint x="350" y="720" as="sourcePoint" />
            <mxPoint x="480" y="720" as="targetPoint" />
            <Array as="points">
              <mxPoint x="394" y="720" />
            </Array>
          </mxGeometry>
        </mxCell>
        <mxCell id="qkcrN9jC0wkOHxkFEvWr-57" value="" style="endArrow=none;html=1;rounded=0;" edge="1" parent="1">
          <mxGeometry width="50" height="50" relative="1" as="geometry">
            <mxPoint x="120" y="720" as="sourcePoint" />
            <mxPoint x="240" y="720" as="targetPoint" />
          </mxGeometry>
        </mxCell>
        <mxCell id="qkcrN9jC0wkOHxkFEvWr-58" value="" style="endArrow=none;html=1;rounded=0;" edge="1" parent="1">
          <mxGeometry width="50" height="50" relative="1" as="geometry">
            <mxPoint x="480" y="720" as="sourcePoint" />
            <mxPoint x="600" y="720" as="targetPoint" />
          </mxGeometry>
        </mxCell>
        <mxCell id="qkcrN9jC0wkOHxkFEvWr-59" value="" style="endArrow=none;html=1;rounded=0;" edge="1" parent="1">
          <mxGeometry width="50" height="50" relative="1" as="geometry">
            <mxPoint x="120" y="260" as="sourcePoint" />
            <mxPoint x="120" y="720" as="targetPoint" />
          </mxGeometry>
        </mxCell>
        <mxCell id="qkcrN9jC0wkOHxkFEvWr-60" value="" style="endArrow=none;html=1;rounded=0;" edge="1" parent="1">
          <mxGeometry width="50" height="50" relative="1" as="geometry">
            <mxPoint x="600" y="260" as="sourcePoint" />
            <mxPoint x="600" y="720" as="targetPoint" />
          </mxGeometry>
        </mxCell>
        <mxCell id="qkcrN9jC0wkOHxkFEvWr-62" value="" style="endArrow=classic;html=1;rounded=0;entryX=0;entryY=0.5;entryDx=0;entryDy=0;" edge="1" parent="1" target="qkcrN9jC0wkOHxkFEvWr-35">
          <mxGeometry width="50" height="50" relative="1" as="geometry">
            <mxPoint x="120" y="260" as="sourcePoint" />
            <mxPoint x="180" y="220" as="targetPoint" />
          </mxGeometry>
        </mxCell>
        <mxCell id="qkcrN9jC0wkOHxkFEvWr-63" value="" style="endArrow=classic;html=1;rounded=0;entryX=1;entryY=0.5;entryDx=0;entryDy=0;" edge="1" parent="1" target="qkcrN9jC0wkOHxkFEvWr-35">
          <mxGeometry width="50" height="50" relative="1" as="geometry">
            <mxPoint x="600" y="259.5" as="sourcePoint" />
            <mxPoint x="450" y="260" as="targetPoint" />
            <Array as="points">
              <mxPoint x="510" y="259.5" />
            </Array>
          </mxGeometry>
        </mxCell>
      </root>
    </mxGraphModel>
  </diagram>
</mxfile>
